<?xml version="1.0" encoding="utf-8"?>
<!-- Generator: Adobe Illustrator 16.0.0, SVG Export Plug-In . SVG Version: 6.00 Build 0)  -->
<!DOCTYPE svg PUBLIC "-//W3C//DTD SVG 1.1//EN" "http://www.w3.org/Graphics/SVG/1.1/DTD/svg11.dtd">
<svg version="1.1" id="Layer_1" xmlns="http://www.w3.org/2000/svg" xmlns:xlink="http://www.w3.org/1999/xlink" x="0px" y="0px"
	 width="332.083px" height="315.197px" viewBox="0 0 332.083 315.197" enable-background="new 0 0 332.083 315.197"
	 xml:space="preserve">
<g>
	<path fill="none" d="M69.889,156.25c0.132,7.44,5.45,3.986,5.45,3.986v-17.009C71.084,145.355,69.757,148.811,69.889,156.25z"/>
	<path fill="none" d="M176.857,204.596c0-3.786,0-11.041-5.683-11.041c-5.68,0-5.994,11.357-5.994,11.357s0,59.316,0,61.84
		s-0.313,11.988,5.994,11.988c6.311,0,5.683-9.781,5.683-9.781S176.857,208.382,176.857,204.596z"/>
	<path fill="none" d="M126.276,204.596c0-3.786,0-11.041-5.68-11.041c-5.683,0-5.997,11.357-5.997,11.357s0,59.316,0,61.84
		s-0.317,11.988,5.997,11.988c6.307,0,5.68-9.781,5.68-9.781S126.276,208.382,126.276,204.596z"/>
	<path fill="#592B7D" d="M79.169,187.244v-5.361l-16.086,0.313v108.853h16.086v-89.921c0,0,8.205-9.466,16.407-2.523v-16.09
		C95.576,182.514,84.218,179.357,79.169,187.244z"/>
	<path fill="#592B7D" d="M120.596,180.305c-22.403,0-21.77,24.921-21.77,24.921s0,53.639,0,59.636c0,5.992,0,26.187,21.77,26.187
		c21.766,0,22.083-25.873,22.083-25.873v-58.999C142.68,206.176,142.996,180.305,120.596,180.305z M120.596,278.741
		c-6.313,0-5.997-9.465-5.997-11.988s0-61.84,0-61.84s0.313-11.357,5.997-11.357c5.68,0,5.68,7.255,5.68,11.041s0,64.363,0,64.363
		S126.903,278.741,120.596,278.741z"/>
	<path fill="#592B7D" d="M171.175,180.305c-22.399,0-21.767,24.923-21.767,24.923s0,53.637,0,59.634c0,5.992,0,26.187,21.767,26.187
		c21.771,0,22.087-25.873,22.087-25.873v-58.999C193.262,206.176,193.578,180.305,171.175,180.305z M171.175,278.741
		c-6.308,0-5.994-9.465-5.994-11.988s0-61.84,0-61.84s0.314-11.357,5.994-11.357c5.683,0,5.683,7.255,5.683,11.041
		s0,64.363,0,64.363S177.485,278.741,171.175,278.741z"/>
	<path fill="#592B7D" d="M262.518,181.568c-9.463-3.787-19.84,6.777-19.84,6.777l-0.084-0.083c-1.377-2.633-3.624-5.229-7.287-6.694
		c-9.463-3.787-18.611,6.309-18.611,6.309v-6.309l-15.46,0.634v108.846h16.09V200.5c0,0,6.944-8.203,9.466-5.993
		c2.525,2.208,2.209,6.309,2.209,7.571c0,1.261,0,88.971,0,88.971h15.778v-90.692l0.012-0.119c0,0,6.688-7.94,9.212-5.73
		c2.524,2.208,2.207,6.309,2.207,7.571c0,1.261,0,88.971,0,88.971h15.779v-94.334C271.988,196.714,271.988,185.354,262.518,181.568z
		"/>
	<path fill="#592B7D" d="M75.204,136.584c0,0-11.826,3.587-11.826,16.875s5.979,15.016,12.355,10.896v1.994h6.514v-35.612
		c0,0-0.132-10.762-8.638-10.762c-8.503,0-9.301,7.973-9.433,11.161c-0.131,3.189,0.132,4.519,0.132,4.519h6.51l-0.131-4.918
		c0,0-0.266-5.315,2.394-5.315c2.653,0,2.124,3.191,2.124,4.783C75.204,131.801,75.204,136.584,75.204,136.584z M75.338,143.228
		v17.009c0,0-5.318,3.454-5.45-3.986C69.757,148.811,71.084,145.355,75.338,143.228z"/>
</g>
<g>
	<path fill="none" d="M183.139,151.587c0.275-0.368,0.618-0.826,1.101-1.192c4.008-4.646,8.11-9.94,8.11-13.733
		c0-0.595-0.397-0.795-0.795-0.795c-3.179,0-9.737,8.944-9.737,17.291c0.31-0.35,0.626-0.708,0.946-1.071
		C182.888,151.92,183.018,151.752,183.139,151.587z"/>
	<path fill="#8C73A8" d="M286.017,151.769c-0.373-4.083-4.24-3.381-4.24-3.381c-3.576,0-5.96-2.185-6.558-5.564
		c-0.594-3.974-1.59-7.75-5.366-7.75c-2.582,0-4.372,1.985-4.372,4.77c0,1.788,0.996,3.575,0.996,5.368
		c0,5.961-5.567,12.915-11.33,12.915c-3.38,0-5.167-2.383-5.167-5.167c0-6.16,2.585-8.343,2.585-10.928
		c0-2.386-1.59-3.775-3.776-3.775c-1.59,0-2.784,0.792-3.777,2.581c-5.763,10.335-13.514,19.276-18.68,19.276
		c-2.188,0-3.18-1.787-3.18-3.575c0-6.959,3.774-10.136,3.774-12.92c0-2.184-1.59-3.775-3.576-3.775c-1.59,0-3.18,0.993-4.175,2.187
		c-0.053,0.064-0.103,0.138-0.154,0.205c-0.222,0.245-0.435,0.506-0.637,0.789c-6.358,8.545-16.892,20.27-27.427,20.27
		c-2.359,0-4.711-0.679-6.163-2.617c0.809-0.938,1.568-1.891,2.274-2.855c6.489-5.911,13.232-14.575,13.232-21.556
		c0-4.769-2.982-7.75-7.753-7.75c-10.136,0-18.882,13.117-18.882,25.439c0,2.528,0.398,4.799,1.107,6.816
		c-4.146,3.507-8.995,6.105-14.271,6.105c-7.25,0-15.892-5.256-15.892-30.296c0-11.631,3.242-22.942,6.103-32.922
		c2.074-7.239,3.867-13.492,3.867-18.239c0-6.606-2.687-10.395-7.371-10.395c-4.139,0-9.009,3.547-14.89,10.847
		c-4.085,5.087-11.829,15.311-17.785,26.629c-3.629,6.868-6.974,13.688-9.782,19.895c2.459-10.625,4.806-21.99,4.806-29.453
		c0-17.326-8.213-35.974-26.245-35.974c-19.292,0-35.571,26.736-35.571,43.527c0,4.014,0,13.414,5.157,13.414
		c2.065,0,3.947-1.833,3.947-3.845c0-0.675-0.143-1.535-0.323-2.624c-0.289-1.74-0.684-4.123-0.684-6.945
		c0-7.364,2.753-15.031,8.181-22.787c3.445-4.91,10.533-13.147,19.292-13.147c5.982,0,10.729,3.498,14.107,10.397
		c3.057,6.242,4.146,13.695,4.146,18.588c0,9.376-3.763,25.016-6.787,37.582c-2.341,9.731-4.19,17.417-4.19,21.133
		c0,2.863,1.597,5.761,4.649,5.761c3.453,0,4.988-3.551,6.778-8.565c11.464-31.884,24.644-55.968,40.282-73.617
		c1.814-2.003,2.974-2.82,4.002-2.82c0.451,0,0.687,1.257,0.687,2.498c0,2.458-1.471,7.593-3.175,13.539
		c-2.995,10.45-7.097,24.761-7.097,37.524c0,25.074,7.969,37.788,23.685,37.788c6.043,0,11.982-2.485,18.154-7.587
		c3,2.9,7.185,4.463,12.005,4.463c8.428,0,17.378-6.021,24.31-12.801c0.501,6.227,4.155,9.824,9.869,9.824
		c6.161,0,13.117-4.772,17.889-10.933c1.192,6.161,5.961,8.942,11.526,8.942c6.158,0,13.713-4.371,17.687-11.924
		c2.584,2.187,5.767,2.781,9.54,2.781C281.38,157.132,286.388,155.852,286.017,151.769z M191.555,135.867
		c0.397,0,0.795,0.2,0.795,0.795c0,3.792-4.103,9.087-8.11,13.733c-0.482,0.366-0.825,0.824-1.101,1.192
		c-0.121,0.165-0.251,0.333-0.375,0.499c-0.32,0.363-0.637,0.722-0.946,1.071C181.817,144.812,188.376,135.867,191.555,135.867z"/>
</g>
<polygon fill="#C1B6B3" points="332.083,122.025 115.273,0 0,90.223 5.547,97.31 22.003,84.43 22.003,315.197 314.679,315.197 
	314.679,278.99 305.679,278.99 305.679,306.197 31.003,306.197 31.003,77.386 116.092,10.788 305.679,117.491 305.679,228.244 
	314.679,228.244 314.679,122.557 327.669,129.868 "/>
</svg>
